# xmcd CD database file
#
# Track frame offsets:
#	150
#	129377
#	187352
#	254767
#
# Disc length: 3910 seconds
#
# Revision: 0
# Processed by: cddbd v1.5.1PL0 Copyright (c) Steve Scherf et al.
# Submitted via: cdripper 1.0.10
#
DISCID=3d0f4404
DTITLE=Michael Snow - Snow Solo Piano Solo Snow (3 Phases) - Piano Biologique
DYEAR=2004
DGENRE=Jazz
TTITLE0=Rovereto
TTITLE1=Forces of Change
TTITLE2=Temperatures
TTITLE3=Your Thoughts About It
EXTD=YEAR: 2004
EXTT0=
EXTT1=
EXTT2=
EXTT3=
PLAYORDER=
